<svg width="428" height="83" viewBox="0 0 428 83" fill="none" xmlns="http://www.w3.org/2000/svg">
<path d="M48.0615 0L0 50.0104L0.288968 50.2931C6.08531 55.9622 15.3864 55.8354 21.026 50.0104V82.8195C21.026 82.9189 48.0611 83 48.0611 83H75.0967V50.0108C80.7362 55.8359 90.0378 55.9626 95.8337 50.2935L96.1226 50.0108L48.0615 0Z" fill="url(#paint0_linear_8_9)"/>
<path d="M48.0615 0L0 50.0104L0.288968 50.2931C6.08531 55.9622 15.3864 55.8354 21.026 50.0104V82.8195C21.026 82.9189 48.0611 83 48.0611 83H75.0967V50.0108C80.7362 55.8359 90.0378 55.9626 95.8337 50.2935L96.1226 50.0108L48.0615 0Z" fill="url(#paint1_linear_8_9)"/>
<path d="M0 50.0104L0.288968 50.2931C6.08531 55.9622 15.3864 55.8354 21.026 50.0104V61.8822C28.2909 59.3823 35.2718 56.0662 41.7679 51.957C53.2719 44.68 63.194 34.9788 70.8881 23.7526L48.0611 0.000488281L0 50.0104Z" fill="url(#paint2_linear_8_9)"/>
<path d="M58.6064 83H37.5168V67.985C37.5168 62.1613 42.238 57.4402 48.0616 57.4402C53.8853 57.4402 58.6064 62.1613 58.6064 67.985V83Z" fill="#053F71"/>
<path d="M12.1699 37.3474L35.117 61.543L60.3197 38.1189L36.0582 12.4905L12.1699 37.3474Z" fill="url(#paint3_linear_8_9)"/>
<path d="M50.7463 53.0887L43.7654 59.5768L46.6461 61.8477C47.0403 62.1586 47.5408 62.3025 48.0398 62.2483L55.4038 61.4499L66.8983 73.8176C67.7558 74.7401 69.1989 74.793 70.1218 73.9355C71.0447 73.078 71.0971 71.6349 70.2396 70.712L58.745 58.3443L60.0792 51.0583C60.1697 50.5646 60.0626 50.0548 59.7817 49.6386L57.7271 46.5997L50.7463 53.0887Z" fill="url(#paint4_linear_8_9)"/>
<path opacity="0.45" d="M43.7654 59.5767L46.3419 61.608L59.5649 49.3187L57.7271 46.6006L50.7463 53.0887L43.7654 59.5767Z" fill="url(#paint5_linear_8_9)"/>
<path d="M64.2734 42.3727L39.0706 65.7969L35.1169 61.5431L60.3197 38.1189L64.2734 42.3727Z" fill="url(#paint6_linear_8_9)"/>
<path d="M61.4841 39.372L36.2813 62.7957L35.1169 61.5431L60.3197 38.1189L61.4841 39.372Z" fill="url(#paint7_linear_8_9)"/>
<path d="M62.6488 40.625L37.4461 64.0487L36.2812 62.7957L61.484 39.3719L62.6488 40.625Z" fill="url(#paint8_linear_8_9)"/>
<path d="M42.1571 32.3303C39.2244 31.8473 36.9257 29.5486 36.4423 26.6155L36.2442 25.4135L36.0462 26.6155C35.5633 29.5481 33.2645 31.8469 30.3314 32.3303L29.1294 32.5283L30.3314 32.7263C33.2641 33.2093 35.5628 35.508 36.0462 38.4411L36.2442 39.6431L36.4423 38.4411C36.9252 35.508 39.2239 33.2097 42.1571 32.7263L43.3591 32.5283L42.1571 32.3303Z" fill="url(#paint9_linear_8_9)"/>
<path d="M32.3409 11.5227C28.1484 10.8319 24.8622 7.54617 24.1719 3.3537L23.8887 1.63513L23.6056 3.3537C22.9148 7.54617 19.6291 10.8323 15.4366 11.5227L13.718 11.8058L15.4366 12.089C19.6291 12.7794 22.9152 16.0655 23.6056 20.258L23.8887 21.9765L24.1719 20.258C24.8627 16.0655 28.1484 12.7794 32.3409 12.089L34.0594 11.8058L32.3409 11.5227Z" fill="url(#paint10_linear_8_9)"/>
<path d="M12.389 24.386C10.3981 24.058 8.83722 22.4976 8.50927 20.5062L8.37487 19.6899L8.24047 20.5062C7.91253 22.4972 6.35166 24.058 4.36071 24.386L3.54443 24.5204L4.36071 24.6548C6.35166 24.9827 7.91253 26.5431 8.24047 28.5345L8.37487 29.3508L8.50927 28.5345C8.83722 26.5436 10.3976 24.9827 12.389 24.6548L13.2053 24.5204L12.389 24.386Z" fill="url(#paint11_linear_8_9)"/>
<path d="M130.45 37.9698H120.9V30.8206H130.45C131.751 30.8206 132.806 30.6008 133.616 30.1611C134.425 29.7214 135.014 29.1147 135.383 28.3408C135.77 27.5494 135.963 26.6612 135.963 25.6764C135.963 24.6211 135.77 23.645 135.383 22.7481C135.014 21.8511 134.425 21.1301 133.616 20.5849C132.806 20.0221 131.751 19.7407 130.45 19.7407H124.382V51.0019H115.123V12.5915H130.45C133.528 12.5915 136.174 13.1543 138.39 14.2798C140.624 15.4054 142.339 16.9531 143.535 18.9229C144.731 20.875 145.329 23.1086 145.329 25.6236C145.329 28.1034 144.731 30.2666 143.535 32.1133C142.339 33.9599 140.624 35.4021 138.39 36.4397C136.174 37.4598 133.528 37.9698 130.45 37.9698Z" fill="white"/>
<path d="M150.315 12.5915H165.431C168.385 12.5915 170.953 13.0312 173.134 13.9105C175.315 14.7899 176.994 16.0913 178.173 17.8149C179.369 19.5384 179.967 21.6665 179.967 24.199C179.967 26.3974 179.624 28.2353 178.938 29.7126C178.252 31.1899 177.293 32.4123 176.062 33.3796C174.849 34.3293 173.433 35.1119 171.815 35.7274L168.781 37.4422H156.092L156.039 30.293H165.431C166.609 30.293 167.585 30.082 168.359 29.6599C169.133 29.2378 169.713 28.6398 170.1 27.866C170.505 27.0745 170.707 26.1336 170.707 25.0432C170.707 23.9352 170.505 22.9855 170.1 22.1941C169.696 21.4027 169.098 20.7959 168.306 20.3738C167.532 19.9517 166.574 19.7407 165.431 19.7407H159.574V51.0019H150.315V12.5915ZM171.34 51.0019L162.845 34.0127L172.659 33.9599L181.259 50.6062V51.0019H171.34Z" fill="white"/>
<path d="M195.399 12.5915V51.0019H186.166V12.5915H195.399Z" fill="white"/>
<path d="M206.506 12.5915H214.051L222.624 39.3152L231.198 12.5915H238.743L225.685 51.0019H219.564L206.506 12.5915ZM201.915 12.5915H209.724L211.175 42.0325V51.0019H201.915V12.5915ZM235.525 12.5915H243.36V51.0019H234.074V42.0325L235.525 12.5915Z" fill="white"/>
<path d="M275.729 43.8791V51.0019H255.257V43.8791H275.729ZM258.555 12.5915V51.0019H249.295V12.5915H258.555ZM273.091 27.8396V34.725H255.257V27.8396H273.091ZM275.808 12.5915V19.7407H255.257V12.5915H275.808Z" fill="white"/>
<path d="M314.825 37.9962H324.059C323.935 40.6695 323.214 43.0261 321.895 45.0663C320.576 47.1064 318.747 48.698 316.408 49.8412C314.087 50.9668 311.343 51.5296 308.177 51.5296C305.61 51.5296 303.314 51.0987 301.292 50.2369C299.287 49.3751 297.581 48.1352 296.174 46.5172C294.785 44.8992 293.721 42.9382 292.982 40.6343C292.261 38.3304 291.9 35.7362 291.9 32.8519V30.7679C291.9 27.8836 292.279 25.2894 293.035 22.9855C293.809 20.664 294.899 18.6942 296.306 17.0762C297.731 15.4406 299.437 14.1919 301.424 13.3301C303.411 12.4684 305.618 12.0375 308.045 12.0375C311.387 12.0375 314.21 12.6354 316.514 13.8314C318.818 15.0273 320.603 16.6717 321.869 18.7646C323.135 20.8399 323.883 23.2054 324.111 25.861H314.878C314.843 24.4189 314.597 23.2141 314.139 22.2469C313.682 21.262 312.961 20.5233 311.976 20.0309C310.991 19.5384 309.681 19.2922 308.045 19.2922C306.902 19.2922 305.909 19.5032 305.064 19.9253C304.22 20.3474 303.517 21.0157 302.954 21.9303C302.391 22.8448 301.969 24.032 301.688 25.4917C301.424 26.9338 301.292 28.675 301.292 30.7151V32.8519C301.292 34.8921 301.415 36.6332 301.661 38.0753C301.908 39.5175 302.303 40.6958 302.848 41.6104C303.394 42.5249 304.097 43.202 304.959 43.6417C305.838 44.0638 306.911 44.2748 308.177 44.2748C309.584 44.2748 310.771 44.055 311.739 43.6153C312.706 43.158 313.454 42.4721 313.981 41.5576C314.509 40.6255 314.79 39.4383 314.825 37.9962Z" fill="white"/>
<path d="M344.715 20.664L335.35 51.0019H325.404L339.518 12.5915H345.823L344.715 20.664ZM352.471 51.0019L343.079 20.664L341.866 12.5915H348.25L362.443 51.0019H352.471ZM352.101 36.6772V43.8264H332.395V36.6772H352.101Z" fill="white"/>
<path d="M365.265 12.5915H380.382C383.336 12.5915 385.904 13.0312 388.085 13.9105C390.266 14.7899 391.945 16.0913 393.124 17.8149C394.319 19.5384 394.917 21.6665 394.917 24.199C394.917 26.3974 394.575 28.2353 393.889 29.7126C393.203 31.1899 392.244 32.4123 391.013 33.3796C389.8 34.3293 388.384 35.1119 386.766 35.7274L383.732 37.4422H371.043L370.99 30.293H380.382C381.56 30.293 382.536 30.082 383.31 29.6599C384.084 29.2378 384.664 28.6398 385.051 27.866C385.456 27.0745 385.658 26.1336 385.658 25.0432C385.658 23.9352 385.456 22.9855 385.051 22.1941C384.647 21.4027 384.049 20.7959 383.257 20.3738C382.483 19.9517 381.525 19.7407 380.382 19.7407H374.525V51.0019H365.265V12.5915ZM386.291 51.0019L377.796 34.0127L387.61 33.9599L396.21 50.6062V51.0019H386.291Z" fill="white"/>
<path d="M426.944 43.8791V51.0019H406.472V43.8791H426.944ZM409.77 12.5915V51.0019H400.51V12.5915H409.77ZM424.306 27.8396V34.725H406.472V27.8396H424.306ZM427.023 12.5915V19.7407H406.472V12.5915H427.023Z" fill="white"/>
<path d="M116.583 59.7972V70.8111H115.123V59.7972H116.583ZM121.197 64.7519V65.9471H116.265V64.7519H121.197ZM121.946 59.7972V60.9924H116.265V59.7972H121.946Z" fill="white"/>
<path d="M132.165 64.9562V65.6521C132.165 66.4792 132.062 67.2205 131.855 67.8761C131.649 68.5317 131.351 69.0889 130.963 69.5478C130.574 70.0067 130.108 70.3572 129.563 70.5993C129.024 70.8414 128.418 70.9624 127.748 70.9624C127.097 70.9624 126.5 70.8414 125.955 70.5993C125.415 70.3572 124.946 70.0067 124.548 69.5478C124.155 69.0889 123.849 68.5317 123.633 67.8761C123.416 67.2205 123.307 66.4792 123.307 65.6521V64.9562C123.307 64.1291 123.413 63.3903 123.625 62.7398C123.842 62.0842 124.147 61.5269 124.54 61.068C124.934 60.604 125.4 60.251 125.94 60.009C126.484 59.7669 127.082 59.6459 127.733 59.6459C128.403 59.6459 129.008 59.7669 129.548 60.009C130.093 60.251 130.559 60.604 130.948 61.068C131.341 61.5269 131.641 62.0842 131.848 62.7398C132.06 63.3903 132.165 64.1291 132.165 64.9562ZM130.721 65.6521V64.941C130.721 64.2854 130.653 63.7055 130.516 63.2012C130.385 62.6969 130.191 62.2733 129.934 61.9304C129.677 61.5874 129.362 61.3277 128.988 61.1512C128.62 60.9747 128.202 60.8865 127.733 60.8865C127.279 60.8865 126.868 60.9747 126.5 61.1512C126.137 61.3277 125.824 61.5874 125.562 61.9304C125.304 62.2733 125.105 62.6969 124.964 63.2012C124.823 63.7055 124.752 64.2854 124.752 64.941V65.6521C124.752 66.3127 124.823 66.8977 124.964 67.4071C125.105 67.9114 125.307 68.3375 125.569 68.6855C125.836 69.0284 126.152 69.2881 126.515 69.4646C126.883 69.6411 127.294 69.7294 127.748 69.7294C128.222 69.7294 128.643 69.6411 129.011 69.4646C129.379 69.2881 129.689 69.0284 129.941 68.6855C130.199 68.3375 130.393 67.9114 130.524 67.4071C130.655 66.8977 130.721 66.3127 130.721 65.6521Z" fill="white"/>
<path d="M134.352 59.7972H137.998C138.825 59.7972 139.523 59.9232 140.093 60.1754C140.668 60.4275 141.104 60.8007 141.402 61.2949C141.704 61.7841 141.856 62.3868 141.856 63.1029C141.856 63.6072 141.752 64.0686 141.545 64.4872C141.344 64.9007 141.051 65.2537 140.668 65.5462C140.29 65.8337 139.836 66.048 139.306 66.1892L138.898 66.348H135.471L135.456 65.1604H138.043C138.568 65.1604 139.004 65.0696 139.352 64.8881C139.7 64.7015 139.962 64.4519 140.138 64.1392C140.315 63.8265 140.403 63.4811 140.403 63.1029C140.403 62.6792 140.32 62.3086 140.154 61.9909C139.987 61.6732 139.725 61.4286 139.367 61.2571C139.014 61.0806 138.557 60.9924 137.998 60.9924H135.812V70.8111H134.352V59.7972ZM140.789 70.8111L138.111 65.8185L139.632 65.811L142.347 70.7203V70.8111H140.789Z" fill="white"/>
<path d="M154.39 67.3087H155.842C155.767 68.0047 155.568 68.6275 155.245 69.1772C154.922 69.7269 154.466 70.1631 153.876 70.4858C153.286 70.8035 152.549 70.9624 151.667 70.9624C151.021 70.9624 150.434 70.8414 149.904 70.5993C149.38 70.3572 148.928 70.0143 148.55 69.5705C148.172 69.1217 147.879 68.5846 147.673 67.9593C147.471 67.3289 147.37 66.6279 147.37 65.8563V64.7595C147.37 63.9879 147.471 63.2895 147.673 62.6641C147.879 62.0337 148.174 61.4941 148.558 61.0453C148.946 60.5965 149.413 60.251 149.957 60.009C150.502 59.7669 151.115 59.6459 151.795 59.6459C152.627 59.6459 153.331 59.8022 153.906 60.1149C154.481 60.4275 154.927 60.8612 155.245 61.416C155.568 61.9657 155.767 62.6036 155.842 63.3298H154.39C154.319 62.8154 154.188 62.3741 153.997 62.006C153.805 61.6328 153.533 61.3454 153.18 61.1436C152.827 60.9419 152.365 60.8411 151.795 60.8411C151.306 60.8411 150.875 60.9344 150.502 61.121C150.134 61.3075 149.824 61.5723 149.571 61.9152C149.324 62.2582 149.138 62.6692 149.012 63.1482C148.886 63.6273 148.823 64.1594 148.823 64.7444V65.8563C148.823 66.3959 148.878 66.9028 148.989 67.3768C149.105 67.8509 149.279 68.2669 149.511 68.625C149.743 68.983 150.038 69.2654 150.396 69.4722C150.754 69.6739 151.178 69.7748 151.667 69.7748C152.287 69.7748 152.781 69.6764 153.149 69.4798C153.518 69.2831 153.795 69.0007 153.982 68.6325C154.173 68.2644 154.309 67.8231 154.39 67.3087Z" fill="white"/>
<path d="M164.511 69.6235V70.8111H159.004V69.6235H164.511ZM159.292 59.7972V70.8111H157.832V59.7972H159.292Z" fill="white"/>
<path d="M173.18 69.6235V70.8111H167.348V69.6235H173.18ZM167.643 59.7972V70.8111H166.183V59.7972H167.643ZM172.409 64.5326V65.7202H167.348V64.5326H172.409ZM173.105 59.7972V60.9924H167.348V59.7972H173.105Z" fill="white"/>
<path d="M179.065 60.773L175.419 70.8111H173.929L178.127 59.7972H179.088L179.065 60.773ZM182.122 70.8111L178.468 60.773L178.445 59.7972H179.406L183.619 70.8111H182.122ZM181.932 66.7338V67.929H175.745V66.7338H181.932Z" fill="white"/>
<path d="M193.567 59.7972V70.8111H192.099L186.554 62.3161V70.8111H185.094V59.7972H186.554L192.122 68.3148V59.7972H193.567Z" fill="white"/>
<path d="M197.72 59.7972V70.8111H196.26V59.7972H197.72Z" fill="white"/>
<path d="M208.847 59.7972V70.8111H207.379L201.835 62.3161V70.8111H200.375V59.7972H201.835L207.402 68.3148V59.7972H208.847Z" fill="white"/>
<path d="M219.573 65.3268V69.3587C219.437 69.5604 219.22 69.7874 218.923 70.0395C218.625 70.2866 218.214 70.5035 217.69 70.6901C217.17 70.8716 216.5 70.9624 215.678 70.9624C215.007 70.9624 214.389 70.8464 213.824 70.6144C213.265 70.3774 212.778 70.0345 212.364 69.5857C211.956 69.1318 211.638 68.5821 211.411 67.9366C211.189 67.286 211.079 66.5498 211.079 65.7277V64.873C211.079 64.0509 211.174 63.3172 211.366 62.6717C211.563 62.0262 211.85 61.479 212.228 61.0302C212.607 60.5763 213.071 60.2334 213.62 60.0014C214.17 59.7644 214.8 59.6459 215.511 59.6459C216.354 59.6459 217.057 59.7921 217.622 60.0846C218.192 60.3721 218.635 60.7705 218.953 61.2798C219.276 61.7892 219.483 62.3691 219.573 63.0197H218.114C218.048 62.6213 217.917 62.2582 217.72 61.9304C217.529 61.6026 217.254 61.3403 216.896 61.1436C216.538 60.9419 216.076 60.8411 215.511 60.8411C215.002 60.8411 214.561 60.9344 214.188 61.121C213.814 61.3075 213.507 61.5748 213.265 61.9228C213.023 62.2708 212.841 62.6919 212.72 63.1861C212.604 63.6803 212.546 64.2375 212.546 64.8578V65.7277C212.546 66.3632 212.619 66.9305 212.765 67.4298C212.917 67.929 213.131 68.3552 213.408 68.7082C213.686 69.0561 214.016 69.3209 214.399 69.5024C214.788 69.684 215.216 69.7748 215.685 69.7748C216.205 69.7748 216.626 69.7319 216.949 69.6462C217.271 69.5554 217.523 69.4495 217.705 69.3285C217.887 69.2024 218.025 69.0839 218.121 68.9729V66.5069H215.572V65.3268H219.573Z" fill="white"/>
<path d="M229.914 60.773L226.268 70.8111H224.778L228.976 59.7972H229.937L229.914 60.773ZM232.97 70.8111L229.317 60.773L229.294 59.7972H230.255L234.468 70.8111H232.97ZM232.781 66.7338V67.929H226.593V66.7338H232.781Z" fill="white"/>
<path d="M244.415 59.7972V70.8111H242.948L237.403 62.3161V70.8111H235.943V59.7972H237.403L242.971 68.3148V59.7972H244.415Z" fill="white"/>
<path d="M249.983 70.8111H247.683L247.698 69.6235H249.983C250.77 69.6235 251.425 69.4596 251.95 69.1318C252.474 68.7989 252.867 68.335 253.13 67.7399C253.397 67.1398 253.531 66.4388 253.531 65.637V64.9637C253.531 64.3334 253.455 63.7736 253.304 63.2844C253.152 62.7902 252.93 62.3741 252.638 62.0363C252.346 61.6933 251.987 61.4336 251.564 61.2571C251.145 61.0806 250.664 60.9924 250.119 60.9924H247.638V59.7972H250.119C250.84 59.7972 251.498 59.9182 252.093 60.1603C252.688 60.3973 253.2 60.7427 253.629 61.1966C254.063 61.6454 254.395 62.1901 254.627 62.8305C254.859 63.466 254.975 64.1821 254.975 64.9789V65.637C254.975 66.4338 254.859 67.1524 254.627 67.7929C254.395 68.4283 254.06 68.9704 253.621 69.4192C253.188 69.8681 252.663 70.2135 252.048 70.4556C251.438 70.6926 250.749 70.8111 249.983 70.8111ZM248.462 59.7972V70.8111H247.002V59.7972H248.462Z" fill="white"/>
<path d="M268.206 64.5326V65.7202H262.245V64.5326H268.206ZM262.472 59.7972V70.8111H261.012V59.7972H262.472ZM269.477 59.7972V70.8111H268.024V59.7972H269.477Z" fill="white"/>
<path d="M280.551 64.9562V65.6521C280.551 66.4792 280.448 67.2205 280.241 67.8761C280.034 68.5317 279.737 69.0889 279.348 69.5478C278.96 70.0067 278.494 70.3572 277.949 70.5993C277.409 70.8414 276.804 70.9624 276.133 70.9624C275.483 70.9624 274.885 70.8414 274.341 70.5993C273.801 70.3572 273.332 70.0067 272.934 69.5478C272.54 69.0889 272.235 68.5317 272.018 67.8761C271.801 67.2205 271.693 66.4792 271.693 65.6521V64.9562C271.693 64.1291 271.799 63.3903 272.011 62.7398C272.228 62.0842 272.533 61.5269 272.926 61.068C273.319 60.604 273.786 60.251 274.325 60.009C274.87 59.7669 275.468 59.6459 276.118 59.6459C276.789 59.6459 277.394 59.7669 277.934 60.009C278.478 60.251 278.945 60.604 279.333 61.068C279.727 61.5269 280.027 62.0842 280.233 62.7398C280.445 63.3903 280.551 64.1291 280.551 64.9562ZM279.106 65.6521V64.941C279.106 64.2854 279.038 63.7055 278.902 63.2012C278.771 62.6969 278.577 62.2733 278.32 61.9304C278.062 61.5874 277.747 61.3277 277.374 61.1512C277.006 60.9747 276.587 60.8865 276.118 60.8865C275.664 60.8865 275.253 60.9747 274.885 61.1512C274.522 61.3277 274.21 61.5874 273.947 61.9304C273.69 62.2733 273.491 62.6969 273.35 63.2012C273.208 63.7055 273.138 64.2854 273.138 64.941V65.6521C273.138 66.3127 273.208 66.8977 273.35 67.4071C273.491 67.9114 273.693 68.3375 273.955 68.6855C274.222 69.0284 274.537 69.2881 274.9 69.4646C275.269 69.6411 275.68 69.7294 276.133 69.7294C276.607 69.7294 277.029 69.6411 277.397 69.4646C277.765 69.2881 278.075 69.0284 278.327 68.6855C278.584 68.3375 278.778 67.9114 278.91 67.4071C279.041 66.8977 279.106 66.3127 279.106 65.6521Z" fill="white"/>
<path d="M288.607 68.0274C288.607 67.7702 288.567 67.5432 288.486 67.3466C288.411 67.1448 288.274 66.9633 288.078 66.8019C287.886 66.6405 287.619 66.4867 287.276 66.3405C286.938 66.1942 286.509 66.0455 285.99 65.8942C285.445 65.7328 284.954 65.5538 284.515 65.3571C284.076 65.1554 283.7 64.9259 283.388 64.6687C283.075 64.4115 282.836 64.1165 282.669 63.7837C282.503 63.4508 282.42 63.0701 282.42 62.6414C282.42 62.2128 282.508 61.8169 282.684 61.4538C282.861 61.0907 283.113 60.7755 283.441 60.5082C283.774 60.2359 284.169 60.0241 284.628 59.8728C285.087 59.7215 285.599 59.6459 286.164 59.6459C286.991 59.6459 287.692 59.8047 288.267 60.1224C288.847 60.4351 289.288 60.8461 289.591 61.3555C289.893 61.8598 290.045 62.3994 290.045 62.9743H288.592C288.592 62.5607 288.504 62.1951 288.327 61.8774C288.151 61.5547 287.884 61.3025 287.526 61.121C287.168 60.9344 286.714 60.8411 286.164 60.8411C285.645 60.8411 285.216 60.9192 284.878 61.0756C284.54 61.2319 284.288 61.4437 284.122 61.711C283.96 61.9783 283.879 62.2834 283.879 62.6263C283.879 62.8583 283.927 63.0701 284.023 63.2617C284.124 63.4483 284.278 63.6223 284.485 63.7837C284.696 63.945 284.964 64.0938 285.286 64.23C285.614 64.3661 286.005 64.4973 286.459 64.6233C287.084 64.7998 287.624 64.9965 288.078 65.2134C288.532 65.4302 288.905 65.6748 289.197 65.9471C289.495 66.2144 289.714 66.5195 289.855 66.8624C290.002 67.2003 290.075 67.5836 290.075 68.0122C290.075 68.4611 289.984 68.867 289.802 69.2301C289.621 69.5932 289.361 69.9034 289.023 70.1606C288.685 70.4178 288.279 70.617 287.805 70.7582C287.336 70.8943 286.812 70.9624 286.232 70.9624C285.723 70.9624 285.221 70.8918 284.727 70.7506C284.238 70.6094 283.791 70.3976 283.388 70.1152C282.989 69.8328 282.669 69.4848 282.427 69.0713C282.19 68.6527 282.072 68.1686 282.072 67.6189H283.524C283.524 67.9971 283.597 68.3224 283.743 68.5947C283.89 68.862 284.089 69.0839 284.341 69.2604C284.598 69.4369 284.888 69.568 285.211 69.6537C285.539 69.7344 285.879 69.7748 286.232 69.7748C286.741 69.7748 287.173 69.7042 287.526 69.563C287.879 69.4218 288.146 69.22 288.327 68.9578C288.514 68.6956 288.607 68.3854 288.607 68.0274Z" fill="white"/>
<path d="M295.998 66.4918H293.055V65.3041H295.998C296.568 65.3041 297.029 65.2134 297.382 65.0318C297.735 64.8503 297.992 64.5981 298.154 64.2754C298.32 63.9526 298.403 63.5845 298.403 63.1709C298.403 62.7927 298.32 62.4372 298.154 62.1043C297.992 61.7715 297.735 61.5042 297.382 61.3025C297.029 61.0957 296.568 60.9924 295.998 60.9924H293.396V70.8111H291.936V59.7972H295.998C296.83 59.7972 297.533 59.9409 298.108 60.2283C298.683 60.5158 299.119 60.9142 299.417 61.4235C299.715 61.9278 299.863 62.5053 299.863 63.1558C299.863 63.8618 299.715 64.4645 299.417 64.9637C299.119 65.463 298.683 65.8437 298.108 66.106C297.533 66.3632 296.83 66.4918 295.998 66.4918Z" fill="white"/>
<path d="M303.275 59.7972V70.8111H301.815V59.7972H303.275Z" fill="white"/>
<path d="M309.773 59.7972V70.8111H308.336V59.7972H309.773ZM313.313 59.7972V60.9924H304.803V59.7972H313.313Z" fill="white"/>
<path d="M318.419 60.773L314.773 70.8111H313.283L317.481 59.7972H318.442L318.419 60.773ZM321.475 70.8111L317.821 60.773L317.799 59.7972H318.759L322.973 70.8111H321.475ZM321.286 66.7338V67.929H315.098V66.7338H321.286Z" fill="white"/>
<path d="M331.127 69.6235V70.8111H325.621V69.6235H331.127ZM325.908 59.7972V70.8111H324.448V59.7972H325.908Z" fill="white"/>
<path d="M334.365 59.7972V70.8111H332.905V59.7972H334.365Z" fill="white"/>
<path d="M340.863 59.7972V70.8111H339.426V59.7972H340.863ZM344.403 59.7972V60.9924H335.893V59.7972H344.403Z" fill="white"/>
<path d="M346.665 59.7972L349.524 65.3268L352.391 59.7972H354.048L350.251 66.696V70.8111H348.791V66.696L344.993 59.7972H346.665Z" fill="white"/>
<path d="M365.175 68.0274C365.175 67.7702 365.135 67.5432 365.054 67.3466C364.979 67.1448 364.843 66.9633 364.646 66.8019C364.454 66.6405 364.187 66.4867 363.844 66.3405C363.506 66.1942 363.077 66.0455 362.558 65.8942C362.013 65.7328 361.522 65.5538 361.083 65.3571C360.644 65.1554 360.269 64.9259 359.956 64.6687C359.643 64.4115 359.404 64.1165 359.237 63.7837C359.071 63.4508 358.988 63.0701 358.988 62.6414C358.988 62.2128 359.076 61.8169 359.252 61.4538C359.429 61.0907 359.681 60.7755 360.009 60.5082C360.342 60.2359 360.738 60.0241 361.196 59.8728C361.655 59.7215 362.167 59.6459 362.732 59.6459C363.559 59.6459 364.26 59.8047 364.835 60.1224C365.415 60.4351 365.856 60.8461 366.159 61.3555C366.461 61.8598 366.613 62.3994 366.613 62.9743H365.16C365.16 62.5607 365.072 62.1951 364.896 61.8774C364.719 61.5547 364.452 61.3025 364.094 61.121C363.736 60.9344 363.282 60.8411 362.732 60.8411C362.213 60.8411 361.784 60.9192 361.446 61.0756C361.108 61.2319 360.856 61.4437 360.69 61.711C360.528 61.9783 360.448 62.2834 360.448 62.6263C360.448 62.8583 360.495 63.0701 360.591 63.2617C360.692 63.4483 360.846 63.6223 361.053 63.7837C361.265 63.945 361.532 64.0938 361.855 64.23C362.182 64.3661 362.573 64.4973 363.027 64.6233C363.652 64.7998 364.192 64.9965 364.646 65.2134C365.1 65.4302 365.473 65.6748 365.765 65.9471C366.063 66.2144 366.282 66.5195 366.424 66.8624C366.57 67.2003 366.643 67.5836 366.643 68.0122C366.643 68.4611 366.552 68.867 366.371 69.2301C366.189 69.5932 365.929 69.9034 365.591 70.1606C365.254 70.4178 364.848 70.617 364.374 70.7582C363.905 70.8943 363.38 70.9624 362.8 70.9624C362.291 70.9624 361.789 70.8918 361.295 70.7506C360.806 70.6094 360.359 70.3976 359.956 70.1152C359.557 69.8328 359.237 69.4848 358.995 69.0713C358.758 68.6527 358.64 68.1686 358.64 67.6189H360.092C360.092 67.9971 360.165 68.3224 360.311 68.5947C360.458 68.862 360.657 69.0839 360.909 69.2604C361.166 69.4369 361.456 69.568 361.779 69.6537C362.107 69.7344 362.447 69.7748 362.8 69.7748C363.309 69.7748 363.741 69.7042 364.094 69.563C364.447 69.4218 364.714 69.22 364.896 68.9578C365.082 68.6956 365.175 68.3854 365.175 68.0274Z" fill="white"/>
<path d="M375.501 69.6235V70.8111H369.669V69.6235H375.501ZM369.964 59.7972V70.8111H368.504V59.7972H369.964ZM374.729 64.5326V65.7202H369.669V64.5326H374.729ZM375.425 59.7972V60.9924H369.669V59.7972H375.425Z" fill="white"/>
<path d="M377.309 59.7972H380.955C381.782 59.7972 382.48 59.9232 383.05 60.1754C383.625 60.4275 384.061 60.8007 384.359 61.2949C384.662 61.7841 384.813 62.3868 384.813 63.1029C384.813 63.6072 384.71 64.0686 384.503 64.4872C384.301 64.9007 384.009 65.2537 383.625 65.5462C383.247 65.8337 382.793 66.048 382.264 66.1892L381.855 66.348H378.428L378.413 65.1604H381C381.525 65.1604 381.961 65.0696 382.309 64.8881C382.657 64.7015 382.919 64.4519 383.096 64.1392C383.272 63.8265 383.361 63.4811 383.361 63.1029C383.361 62.6792 383.277 62.3086 383.111 61.9909C382.944 61.6732 382.682 61.4286 382.324 61.2571C381.971 61.0806 381.515 60.9924 380.955 60.9924H378.769V70.8111H377.309V59.7972ZM383.746 70.8111L381.068 65.8185L382.589 65.811L385.305 70.7203V70.8111H383.746Z" fill="white"/>
<path d="M390.259 69.1393L393.505 59.7972H395.086L391.008 70.8111H389.881L390.259 69.1393ZM387.226 59.7972L390.441 69.1393L390.842 70.8111H389.715L385.645 59.7972H387.226Z" fill="white"/>
<path d="M398.134 59.7972V70.8111H396.674V59.7972H398.134Z" fill="white"/>
<path d="M407.438 67.3087H408.891C408.815 68.0047 408.616 68.6275 408.293 69.1772C407.97 69.7269 407.514 70.1631 406.924 70.4858C406.334 70.8035 405.598 70.9624 404.715 70.9624C404.07 70.9624 403.482 70.8414 402.953 70.5993C402.428 70.3572 401.977 70.0143 401.599 69.5705C401.22 69.1217 400.928 68.5846 400.721 67.9593C400.519 67.3289 400.418 66.6279 400.418 65.8563V64.7595C400.418 63.9879 400.519 63.2895 400.721 62.6641C400.928 62.0337 401.223 61.4941 401.606 61.0453C401.994 60.5965 402.461 60.251 403.006 60.009C403.55 59.7669 404.163 59.6459 404.844 59.6459C405.676 59.6459 406.379 59.8022 406.954 60.1149C407.529 60.4275 407.975 60.8612 408.293 61.416C408.616 61.9657 408.815 62.6036 408.891 63.3298H407.438C407.368 62.8154 407.237 62.3741 407.045 62.006C406.853 61.6328 406.581 61.3454 406.228 61.1436C405.875 60.9419 405.414 60.8411 404.844 60.8411C404.355 60.8411 403.923 60.9344 403.55 61.121C403.182 61.3075 402.872 61.5723 402.62 61.9152C402.373 62.2582 402.186 62.6692 402.06 63.1482C401.934 63.6273 401.871 64.1594 401.871 64.7444V65.8563C401.871 66.3959 401.926 66.9028 402.037 67.3768C402.153 67.8509 402.327 68.2669 402.559 68.625C402.791 68.983 403.086 69.2654 403.444 69.4722C403.802 69.6739 404.226 69.7748 404.715 69.7748C405.335 69.7748 405.83 69.6764 406.198 69.4798C406.566 69.2831 406.843 69.0007 407.03 68.6325C407.222 68.2644 407.358 67.8231 407.438 67.3087Z" fill="white"/>
<path d="M417.877 69.6235V70.8111H412.045V69.6235H417.877ZM412.34 59.7972V70.8111H410.88V59.7972H412.34ZM417.106 64.5326V65.7202H412.045V64.5326H417.106ZM417.802 59.7972V60.9924H412.045V59.7972H417.802Z" fill="white"/>
<path d="M425.555 68.0274C425.555 67.7702 425.515 67.5432 425.434 67.3466C425.359 67.1448 425.223 66.9633 425.026 66.8019C424.834 66.6405 424.567 66.4867 424.224 66.3405C423.886 66.1942 423.457 66.0455 422.938 65.8942C422.393 65.7328 421.902 65.5538 421.463 65.3571C421.024 65.1554 420.649 64.9259 420.336 64.6687C420.023 64.4115 419.784 64.1165 419.617 63.7837C419.451 63.4508 419.368 63.0701 419.368 62.6414C419.368 62.2128 419.456 61.8169 419.632 61.4538C419.809 61.0907 420.061 60.7755 420.389 60.5082C420.722 60.2359 421.118 60.0241 421.576 59.8728C422.035 59.7215 422.547 59.6459 423.112 59.6459C423.939 59.6459 424.64 59.8047 425.215 60.1224C425.795 60.4351 426.236 60.8461 426.539 61.3555C426.841 61.8598 426.993 62.3994 426.993 62.9743H425.54C425.54 62.5607 425.452 62.1951 425.275 61.8774C425.099 61.5547 424.832 61.3025 424.474 61.121C424.116 60.9344 423.662 60.8411 423.112 60.8411C422.593 60.8411 422.164 60.9192 421.826 61.0756C421.488 61.2319 421.236 61.4437 421.07 61.711C420.908 61.9783 420.828 62.2834 420.828 62.6263C420.828 62.8583 420.875 63.0701 420.971 63.2617C421.072 63.4483 421.226 63.6223 421.433 63.7837C421.645 63.945 421.912 64.0938 422.235 64.23C422.562 64.3661 422.953 64.4973 423.407 64.6233C424.032 64.7998 424.572 64.9965 425.026 65.2134C425.48 65.4302 425.853 65.6748 426.145 65.9471C426.443 66.2144 426.662 66.5195 426.804 66.8624C426.95 67.2003 427.023 67.5836 427.023 68.0122C427.023 68.4611 426.932 68.867 426.751 69.2301C426.569 69.5932 426.309 69.9034 425.971 70.1606C425.634 70.4178 425.228 70.617 424.754 70.7582C424.285 70.8943 423.76 70.9624 423.18 70.9624C422.671 70.9624 422.169 70.8918 421.675 70.7506C421.186 70.6094 420.739 70.3976 420.336 70.1152C419.937 69.8328 419.617 69.4848 419.375 69.0713C419.138 68.6527 419.02 68.1686 419.02 67.6189H420.472C420.472 67.9971 420.545 68.3224 420.691 68.5947C420.838 68.862 421.037 69.0839 421.289 69.2604C421.546 69.4369 421.836 69.568 422.159 69.6537C422.487 69.7344 422.827 69.7748 423.18 69.7748C423.689 69.7748 424.121 69.7042 424.474 69.563C424.827 69.4218 425.094 69.22 425.275 68.9578C425.462 68.6956 425.555 68.3854 425.555 68.0274Z" fill="white"/>
<defs>
<linearGradient id="paint0_linear_8_9" x1="68.965" y1="83.0853" x2="52.7886" y2="57.4897" gradientUnits="userSpaceOnUse">
<stop offset="0.0056" stop-color="#A5DFF2"/>
<stop offset="1" stop-color="#0091BF"/>
</linearGradient>
<linearGradient id="paint1_linear_8_9" x1="24.2116" y1="31.0775" x2="75.3677" y2="82.2335" gradientUnits="userSpaceOnUse">
<stop offset="0.1114" stop-color="#A5DFF2"/>
<stop offset="0.1558" stop-color="#85D0E8"/>
<stop offset="0.2156" stop-color="#62BFDD"/>
<stop offset="0.2812" stop-color="#43B1D4"/>
<stop offset="0.3527" stop-color="#2BA5CC"/>
<stop offset="0.4327" stop-color="#189CC6"/>
<stop offset="0.5256" stop-color="#0A96C2"/>
<stop offset="0.6434" stop-color="#0292C0"/>
<stop offset="0.8687" stop-color="#0091BF"/>
</linearGradient>
<linearGradient id="paint2_linear_8_9" x1="35.4443" y1="-11.818" x2="35.4443" y2="72.7043" gradientUnits="userSpaceOnUse">
<stop offset="0.3711" stop-color="#A5DFF2"/>
<stop offset="0.9778" stop-color="#0091BF"/>
</linearGradient>
<linearGradient id="paint3_linear_8_9" x1="18.0158" y1="19.445" x2="52.9452" y2="54.3744" gradientUnits="userSpaceOnUse">
<stop offset="0.1334" stop-color="white"/>
<stop offset="0.8886" stop-color="#A5DFF2"/>
</linearGradient>
<linearGradient id="paint4_linear_8_9" x1="51.7245" y1="54.1414" x2="72.4564" y2="76.4476" gradientUnits="userSpaceOnUse">
<stop stop-color="#1D70AC"/>
<stop offset="1" stop-color="#053F71"/>
</linearGradient>
<linearGradient id="paint5_linear_8_9" x1="50.8576" y1="53.2086" x2="53.2192" y2="55.7495" gradientUnits="userSpaceOnUse">
<stop stop-color="#1D70AC"/>
<stop offset="1" stop-color="#053F71"/>
</linearGradient>
<linearGradient id="paint6_linear_8_9" x1="51.8109" y1="54.2343" x2="47.8241" y2="49.9448" gradientUnits="userSpaceOnUse">
<stop stop-color="#1D70AC"/>
<stop offset="1" stop-color="#053F71"/>
</linearGradient>
<linearGradient id="paint7_linear_8_9" x1="47.7849" y1="49.9026" x2="48.6833" y2="50.8692" gradientUnits="userSpaceOnUse">
<stop stop-color="#1D70AC"/>
<stop offset="1" stop-color="#053F71"/>
</linearGradient>
<linearGradient id="paint8_linear_8_9" x1="48.9493" y1="51.1555" x2="50.0141" y2="52.3011" gradientUnits="userSpaceOnUse">
<stop stop-color="#1D70AC"/>
<stop offset="1" stop-color="#053F71"/>
</linearGradient>
<linearGradient id="paint9_linear_8_9" x1="34.2367" y1="28.2914" x2="38.7487" y2="37.8122" gradientUnits="userSpaceOnUse">
<stop offset="0.0056" stop-color="#A5DFF2"/>
<stop offset="1" stop-color="#0091BF"/>
</linearGradient>
<linearGradient id="paint10_linear_8_9" x1="21.0184" y1="5.74902" x2="27.4685" y2="19.3591" gradientUnits="userSpaceOnUse">
<stop offset="0.0056" stop-color="#A5DFF2"/>
<stop offset="1" stop-color="#0091BF"/>
</linearGradient>
<linearGradient id="paint11_linear_8_9" x1="7.01171" y1="21.6438" x2="10.0749" y2="28.1076" gradientUnits="userSpaceOnUse">
<stop offset="0.0056" stop-color="#A5DFF2"/>
<stop offset="1" stop-color="#0091BF"/>
</linearGradient>
</defs>
</svg>
